<svg width="20" height="20" viewBox="0 0 20 20" fill="none" xmlns="http://www.w3.org/2000/svg">
<path d="M9.63421 2.72156C9.67018 2.65623 9.72303 2.60176 9.78723 2.56382C9.85143 2.52587 9.92464 2.50586 9.99921 2.50586C10.0738 2.50586 10.147 2.52587 10.2112 2.56382C10.2754 2.60176 10.3282 2.65623 10.3642 2.72156L12.8242 7.39156C12.8829 7.4997 12.9648 7.5935 13.064 7.66625C13.1632 7.73899 13.2773 7.78886 13.398 7.81228C13.5188 7.8357 13.6433 7.83209 13.7625 7.80171C13.8817 7.77133 13.9927 7.71493 14.0875 7.63656L17.6517 4.58323C17.7201 4.52758 17.8044 4.49508 17.8925 4.4904C17.9806 4.48572 18.0679 4.5091 18.1418 4.55718C18.2157 4.60527 18.2725 4.67557 18.3039 4.75797C18.3354 4.84037 18.3398 4.93062 18.3167 5.01573L15.955 13.5541C15.9068 13.7288 15.803 13.883 15.6592 13.9934C15.5155 14.1038 15.3396 14.1643 15.1584 14.1657H4.84088C4.65949 14.1645 4.48347 14.104 4.33954 13.9937C4.19561 13.8833 4.09163 13.7289 4.04338 13.5541L1.68255 5.01656C1.65942 4.93146 1.6639 4.84121 1.69533 4.75881C1.72676 4.6764 1.78353 4.6061 1.85746 4.55802C1.9314 4.50993 2.01868 4.48655 2.10675 4.49123C2.19482 4.49591 2.27913 4.52841 2.34755 4.58406L5.91088 7.6374C6.00571 7.71576 6.11672 7.77216 6.23593 7.80254C6.35515 7.83293 6.47961 7.83653 6.60038 7.81311C6.72115 7.78969 6.83524 7.73982 6.93446 7.66708C7.03367 7.59434 7.11555 7.50053 7.17421 7.3924L9.63421 2.72156Z" stroke="white" stroke-width="1.66667" stroke-linecap="round" stroke-linejoin="round"/>
<path d="M4.16797 17.5H15.8346" stroke="white" stroke-width="1.66667" stroke-linecap="round" stroke-linejoin="round"/>
</svg>
