<svg width="20" height="20" viewBox="0 0 20 20" fill="none" xmlns="http://www.w3.org/2000/svg">
<path d="M10 4.16699C10 3.67254 10.1466 3.18919 10.4213 2.77807C10.696 2.36694 11.0865 2.04651 11.5433 1.85729C12.0001 1.66808 12.5028 1.61857 12.9877 1.71503C13.4727 1.81149 13.9181 2.0496 14.2678 2.39923C14.6174 2.74886 14.8555 3.19432 14.952 3.67927C15.0484 4.16422 14.9989 4.66689 14.8097 5.1237C14.6205 5.58052 14.3 5.97096 13.8889 6.24567C13.4778 6.52037 12.9945 6.66699 12.5 6.66699M10 4.16699C10 3.67254 9.85338 3.18919 9.57867 2.77807C9.30397 2.36694 8.91352 2.04651 8.45671 1.85729C7.99989 1.66808 7.49723 1.61857 7.01228 1.71503C6.52732 1.81149 6.08187 2.0496 5.73223 2.39923C5.3826 2.74886 5.1445 3.19432 5.04804 3.67927C4.95157 4.16422 5.00108 4.66689 5.1903 5.1237C5.37952 5.58052 5.69995 5.97096 6.11108 6.24567C6.5222 6.52037 7.00555 6.66699 7.5 6.66699M10 4.16699V5.00033M12.5 6.66699C12.9945 6.66699 13.4778 6.81362 13.8889 7.08832C14.3 7.36302 14.6205 7.75347 14.8097 8.21028C14.9989 8.6671 15.0484 9.16977 14.952 9.65472C14.8555 10.1397 14.6174 10.5851 14.2678 10.9348C13.9181 11.2844 13.4727 11.5225 12.9877 11.619C12.5028 11.7154 12.0001 11.6659 11.5433 11.4767C11.0865 11.2875 10.696 10.967 10.4213 10.5559C10.1466 10.1448 10 9.66145 10 9.16699M12.5 6.66699H11.6667M7.5 6.66699C7.00555 6.66699 6.5222 6.81362 6.11108 7.08832C5.69995 7.36302 5.37952 7.75347 5.1903 8.21028C5.00108 8.6671 4.95157 9.16977 5.04804 9.65472C5.1445 10.1397 5.3826 10.5851 5.73223 10.9348C6.08187 11.2844 6.52732 11.5225 7.01228 11.619C7.49723 11.7154 7.99989 11.6659 8.45671 11.4767C8.91352 11.2875 9.30397 10.967 9.57867 10.5559C9.85338 10.1448 10 9.66145 10 9.16699M7.5 6.66699H8.33333M10 9.16699V8.33366" stroke="white" stroke-width="1.66667" stroke-linecap="round" stroke-linejoin="round"/>
<path d="M9.9987 8.33333C10.9192 8.33333 11.6654 7.58714 11.6654 6.66667C11.6654 5.74619 10.9192 5 9.9987 5C9.07822 5 8.33203 5.74619 8.33203 6.66667C8.33203 7.58714 9.07822 8.33333 9.9987 8.33333Z" stroke="white" stroke-width="1.66667" stroke-linecap="round" stroke-linejoin="round"/>
<path d="M10 8.33301V18.333" stroke="white" stroke-width="1.66667" stroke-linecap="round" stroke-linejoin="round"/>
<path d="M10 18.3337C13.5 18.3337 15.8333 16.9445 15.8333 14.167C12.3333 14.167 10 15.5562 10 18.3337Z" stroke="white" stroke-width="1.66667" stroke-linecap="round" stroke-linejoin="round"/>
<path d="M10.0013 18.3337C6.5013 18.3337 4.16797 16.9445 4.16797 14.167C7.66797 14.167 10.0013 15.5562 10.0013 18.3337Z" stroke="white" stroke-width="1.66667" stroke-linecap="round" stroke-linejoin="round"/>
</svg>
