<svg width="27" height="27" viewBox="0 0 27 27" fill="none" xmlns="http://www.w3.org/2000/svg">
<path d="M14.3438 7.875C14.3438 7.65122 14.2549 7.43661 14.0966 7.27838C13.9384 7.12014 13.7238 7.03125 13.5 7.03125C13.2762 7.03125 13.0616 7.12014 12.9034 7.27838C12.7451 7.43661 12.6563 7.65122 12.6563 7.875V13.5C12.6562 13.6431 12.6925 13.7838 12.7618 13.9089C12.831 14.0341 12.931 14.1396 13.0523 14.2155L16.4273 16.3249C16.617 16.4436 16.8462 16.4821 17.0643 16.4319C17.1723 16.4071 17.2744 16.3612 17.3647 16.2969C17.455 16.2325 17.5317 16.1511 17.5905 16.0571C17.6493 15.9632 17.689 15.8585 17.7074 15.7492C17.7257 15.6399 17.7224 15.5281 17.6975 15.42C17.6727 15.312 17.6268 15.21 17.5625 15.1197C17.4982 15.0294 17.4167 14.9527 17.3227 14.8939L14.3438 13.032V7.875Z" fill="#2B2B2B"/>
<path fill-rule="evenodd" clip-rule="evenodd" d="M13.5 3.65625C10.8893 3.65625 8.38548 4.69336 6.53942 6.53942C4.69336 8.38548 3.65625 10.8893 3.65625 13.5C3.65625 16.1107 4.69336 18.6145 6.53942 20.4606C8.38548 22.3066 10.8893 23.3438 13.5 23.3438C16.1107 23.3438 18.6145 22.3066 20.4606 20.4606C22.3066 18.6145 23.3438 16.1107 23.3438 13.5C23.3438 10.8893 22.3066 8.38548 20.4606 6.53942C18.6145 4.69336 16.1107 3.65625 13.5 3.65625ZM5.34375 13.5C5.34375 12.4289 5.55472 11.3683 5.96461 10.3787C6.3745 9.38918 6.97528 8.49004 7.73266 7.73266C8.49004 6.97528 9.38918 6.3745 10.3787 5.96461C11.3683 5.55472 12.4289 5.34375 13.5 5.34375C14.5711 5.34375 15.6317 5.55472 16.6213 5.96461C17.6108 6.3745 18.51 6.97528 19.2673 7.73266C20.0247 8.49004 20.6255 9.38918 21.0354 10.3787C21.4453 11.3683 21.6562 12.4289 21.6562 13.5C21.6562 15.6632 20.7969 17.7377 19.2673 19.2673C17.7377 20.7969 15.6632 21.6562 13.5 21.6562C11.3368 21.6562 9.26225 20.7969 7.73266 19.2673C6.20307 17.7377 5.34375 15.6632 5.34375 13.5Z" fill="#2B2B2B"/>
</svg>
