<svg width="24" height="24" viewBox="0 0 24 24" fill="none" xmlns="http://www.w3.org/2000/svg">
<path d="M20.878 2.8259L21.031 2.9699L21.176 3.1229C21.782 3.80532 22.1045 4.69342 22.0775 5.60567C22.0505 6.51792 21.6762 7.38543 21.031 8.0309L9.063 19.9989C8.78587 20.276 8.44116 20.476 8.063 20.5789L2.948 21.9739C2.82049 22.0085 2.6861 22.0088 2.55844 21.9748C2.43078 21.9407 2.31437 21.8736 2.221 21.7801C2.12763 21.6866 2.06061 21.5702 2.02672 21.4425C1.99282 21.3148 1.99327 21.1804 2.028 21.0529L3.422 15.9369C3.5251 15.5591 3.72502 15.2147 4.002 14.9379L15.97 2.9699C16.6156 2.32482 17.4832 1.95067 18.3954 1.9239C19.3077 1.89714 20.1957 2.21978 20.878 2.8259ZM15.001 6.0599L5.063 15.9979C4.9708 16.0902 4.90427 16.205 4.87 16.3309L3.82 20.1809L7.67 19.1309C7.79565 19.0962 7.91007 19.0293 8.002 18.9369L17.94 8.9999L15.001 6.0599ZM6.526 10.9999L5.026 12.4999H2.75C2.55109 12.4999 2.36032 12.4209 2.21967 12.2802C2.07902 12.1396 2 11.9488 2 11.7499C2 11.551 2.07902 11.3602 2.21967 11.2196C2.36032 11.0789 2.55109 10.9999 2.75 10.9999H6.526ZM10.526 6.9999L9.026 8.4999H2.75C2.55109 8.4999 2.36032 8.42088 2.21967 8.28023C2.07902 8.13957 2 7.94881 2 7.7499C2 7.55098 2.07902 7.36022 2.21967 7.21957C2.36032 7.07891 2.55109 6.9999 2.75 6.9999H10.526ZM17.031 4.0299L16.061 4.9999L19 7.9399L19.97 6.9699C20.163 6.77692 20.3162 6.54781 20.4207 6.29565C20.5252 6.04348 20.579 5.77321 20.579 5.50025C20.5791 5.22729 20.5254 4.957 20.421 4.7048C20.3165 4.4526 20.1635 4.22344 19.9705 4.0304C19.7775 3.83735 19.5484 3.68421 19.2962 3.57971C19.0441 3.47521 18.7738 3.4214 18.5009 3.42136C18.2279 3.42131 17.9576 3.47503 17.7054 3.57944C17.4532 3.68385 17.224 3.83692 17.031 4.0299ZM14.526 2.9999L13.026 4.4999H2.75C2.55109 4.4999 2.36032 4.42088 2.21967 4.28023C2.07902 4.13957 2 3.94881 2 3.7499C2 3.55098 2.07902 3.36022 2.21967 3.21957C2.36032 3.07891 2.55109 2.9999 2.75 2.9999H14.526Z" fill="white"/>
</svg>
