<svg width="20" height="20" viewBox="0 0 20 20" fill="none" xmlns="http://www.w3.org/2000/svg">
<path d="M16.6654 10.8331C16.6654 14.9997 13.7487 17.0831 10.282 18.2914C10.1005 18.3529 9.90331 18.35 9.7237 18.2831C6.2487 17.0831 3.33203 14.9997 3.33203 10.8331V4.99972C3.33203 4.77871 3.41983 4.56675 3.57611 4.41047C3.73239 4.25419 3.94435 4.16639 4.16536 4.16639C5.83203 4.16639 7.91536 3.16639 9.36536 1.89972C9.54191 1.74889 9.76649 1.66602 9.9987 1.66602C10.2309 1.66602 10.4555 1.74889 10.632 1.89972C12.0904 3.17472 14.1654 4.16639 15.832 4.16639C16.053 4.16639 16.265 4.25419 16.4213 4.41047C16.5776 4.56675 16.6654 4.77871 16.6654 4.99972V10.8331Z" stroke="#F7F5F2" stroke-width="1.66667" stroke-linecap="round" stroke-linejoin="round"/>
</svg>
