<svg width="24" height="24" viewBox="0 0 24 24" fill="none" xmlns="http://www.w3.org/2000/svg">
<path d="M3 12C3 9.61305 3.94821 7.32387 5.63604 5.63604C7.32387 3.94821 9.61305 3 12 3C14.516 3.00947 16.931 3.99122 18.74 5.74L21 8" stroke="url(#paint0_linear_4709_5636)" stroke-width="2" stroke-linecap="round" stroke-linejoin="round"/>
<path d="M21 3V8H16" stroke="url(#paint1_linear_4709_5636)" stroke-width="2" stroke-linecap="round" stroke-linejoin="round"/>
<path d="M21 12C21 14.3869 20.0518 16.6761 18.364 18.364C16.6761 20.0518 14.3869 21 12 21C9.48395 20.9905 7.06897 20.0088 5.26 18.26L3 16" stroke="url(#paint2_linear_4709_5636)" stroke-width="2" stroke-linecap="round" stroke-linejoin="round"/>
<path d="M8 16H3V21" stroke="url(#paint3_linear_4709_5636)" stroke-width="2" stroke-linecap="round" stroke-linejoin="round"/>
<defs>
<linearGradient id="paint0_linear_4709_5636" x1="3" y1="7.5" x2="21" y2="7.5" gradientUnits="userSpaceOnUse">
<stop stop-color="#8BAA87"/>
<stop offset="1" stop-color="#D6B26A"/>
</linearGradient>
<linearGradient id="paint1_linear_4709_5636" x1="16" y1="5.5" x2="21" y2="5.5" gradientUnits="userSpaceOnUse">
<stop stop-color="#8BAA87"/>
<stop offset="1" stop-color="#D6B26A"/>
</linearGradient>
<linearGradient id="paint2_linear_4709_5636" x1="3" y1="16.5" x2="21" y2="16.5" gradientUnits="userSpaceOnUse">
<stop stop-color="#8BAA87"/>
<stop offset="1" stop-color="#D6B26A"/>
</linearGradient>
<linearGradient id="paint3_linear_4709_5636" x1="3" y1="18.5" x2="8" y2="18.5" gradientUnits="userSpaceOnUse">
<stop stop-color="#8BAA87"/>
<stop offset="1" stop-color="#D6B26A"/>
</linearGradient>
</defs>
</svg>
