<svg width="20" height="20" viewBox="0 0 20 20" fill="none" xmlns="http://www.w3.org/2000/svg">
<g clip-path="url(#clip0_7964_14621)">
<path d="M9.99807 4.16655C9.99905 3.83324 9.93337 3.5031 9.8049 3.19555C9.67642 2.88799 9.48774 2.60923 9.24996 2.37567C9.01217 2.1421 8.73009 1.95844 8.42028 1.83549C8.11048 1.71254 7.77922 1.65278 7.44598 1.65972C7.11274 1.66667 6.78426 1.74018 6.47985 1.87593C6.17544 2.01169 5.90125 2.20694 5.6734 2.45022C5.44556 2.69349 5.26866 2.97987 5.15311 3.29251C5.03756 3.60515 4.9857 3.93774 5.00057 4.27071C4.51074 4.39666 4.05599 4.63242 3.67076 4.96014C3.28553 5.28786 2.97993 5.69894 2.7771 6.16225C2.57427 6.62556 2.47953 7.12896 2.50006 7.63431C2.52058 8.13965 2.65583 8.63371 2.89557 9.07905C2.47405 9.42149 2.14259 9.86174 1.93002 10.3615C1.71744 10.8612 1.6302 11.4054 1.67587 11.9465C1.72154 12.4877 1.89875 13.0095 2.19207 13.4666C2.4854 13.9236 2.88595 14.3021 3.3589 14.569C3.3005 15.0209 3.33535 15.4799 3.46131 15.9178C3.58726 16.3557 3.80165 16.7631 4.09122 17.1148C4.3808 17.4666 4.73941 17.7553 5.14492 17.963C5.55043 18.1708 5.99422 18.2932 6.44888 18.3227C6.90355 18.3522 7.35944 18.2881 7.78839 18.1346C8.21735 17.981 8.61026 17.7411 8.94287 17.4297C9.27548 17.1183 9.54071 16.742 9.7222 16.3241C9.90369 15.9062 9.99758 15.4555 9.99807 14.9999V4.16655Z" stroke="white" stroke-width="1.66667" stroke-linecap="round" stroke-linejoin="round"/>
<path d="M10 4.16655C9.99903 3.83324 10.0647 3.5031 10.1932 3.19555C10.3217 2.88799 10.5103 2.60923 10.7481 2.37567C10.9859 2.1421 11.268 1.95844 11.5778 1.83549C11.8876 1.71254 12.2189 1.65278 12.5521 1.65972C12.8853 1.66667 13.2138 1.74018 13.5182 1.87593C13.8226 2.01169 14.0968 2.20694 14.3247 2.45022C14.5525 2.69349 14.7294 2.97987 14.845 3.29251C14.9605 3.60515 15.0124 3.93774 14.9975 4.27071C15.4873 4.39666 15.9421 4.63242 16.3273 4.96014C16.7125 5.28786 17.0181 5.69894 17.221 6.16225C17.4238 6.62556 17.5185 7.12896 17.498 7.63431C17.4775 8.13965 17.3422 8.63371 17.1025 9.07905C17.524 9.42149 17.8555 9.86174 18.0681 10.3615C18.2806 10.8612 18.3679 11.4054 18.3222 11.9465C18.2765 12.4877 18.0993 13.0095 17.806 13.4666C17.5127 13.9236 17.1121 14.3021 16.6392 14.569C16.6976 15.0209 16.6627 15.4799 16.5368 15.9178C16.4108 16.3557 16.1964 16.7631 15.9069 17.1148C15.6173 17.4666 15.2587 17.7553 14.8532 17.963C14.4477 18.1708 14.0039 18.2932 13.5492 18.3227C13.0945 18.3522 12.6386 18.2881 12.2097 18.1346C11.7807 17.981 11.3878 17.7411 11.0552 17.4297C10.7226 17.1183 10.4574 16.742 10.2759 16.3241C10.0944 15.9062 10.0005 15.4555 10 14.9999V4.16655Z" stroke="white" stroke-width="1.66667" stroke-linecap="round" stroke-linejoin="round"/>
<path d="M12.5 10.8333C11.8004 10.5872 11.1894 10.1392 10.7444 9.54584C10.2994 8.95251 10.0404 8.24056 10 7.5C9.95962 8.24056 9.70056 8.95251 9.25556 9.54584C8.81057 10.1392 8.19963 10.5872 7.5 10.8333" stroke="white" stroke-width="1.66667" stroke-linecap="round" stroke-linejoin="round"/>
<path d="M14.6641 5.41634C14.8657 5.06683 14.9798 4.67369 14.9966 4.27051" stroke="white" stroke-width="1.66667" stroke-linecap="round" stroke-linejoin="round"/>
<path d="M5.00391 4.27051C5.02039 4.67362 5.13418 5.06675 5.33557 5.41634" stroke="white" stroke-width="1.66667" stroke-linecap="round" stroke-linejoin="round"/>
<path d="M2.89844 9.08C3.05089 8.95584 3.21402 8.84541 3.38594 8.75" stroke="white" stroke-width="1.66667" stroke-linecap="round" stroke-linejoin="round"/>
<path d="M16.6133 8.75C16.7852 8.84541 16.9483 8.95584 17.1008 9.08" stroke="white" stroke-width="1.66667" stroke-linecap="round" stroke-linejoin="round"/>
<path d="M4.99854 15.0003C4.42423 15.0006 3.8596 14.8525 3.35938 14.5703" stroke="white" stroke-width="1.66667" stroke-linecap="round" stroke-linejoin="round"/>
<path d="M16.6392 14.5703C16.1389 14.8525 15.5743 15.0006 15 15.0003" stroke="white" stroke-width="1.66667" stroke-linecap="round" stroke-linejoin="round"/>
</g>
<defs>
<clipPath id="clip0_7964_14621">
<rect width="20" height="20" fill="white"/>
</clipPath>
</defs>
</svg>
