<svg width="20" height="20" viewBox="0 0 20 20" fill="none" xmlns="http://www.w3.org/2000/svg">
<path d="M5.83203 16.667H14.1654" stroke="white" stroke-width="1.66667" stroke-linecap="round" stroke-linejoin="round"/>
<path d="M8.33203 16.6663C12.9154 14.583 8.9987 11.333 10.832 8.33301" stroke="white" stroke-width="1.66667" stroke-linecap="round" stroke-linejoin="round"/>
<path d="M7.91536 7.83349C8.83203 8.50016 9.41536 9.66683 9.83203 10.9168C8.16536 11.2502 6.91536 11.2502 5.83203 10.6668C4.83203 10.1668 3.91536 9.08349 3.33203 7.16683C5.66536 6.75016 6.9987 7.16683 7.91536 7.83349Z" stroke="white" stroke-width="1.66667" stroke-linecap="round" stroke-linejoin="round"/>
<path d="M11.7479 4.99967C11.1125 5.99264 10.7929 7.1548 10.8312 8.33301C12.4145 8.24967 13.5812 7.83301 14.4145 7.16634C15.2479 6.33301 15.7479 5.24967 15.8312 3.33301C13.5812 3.41634 12.4979 4.16634 11.7479 4.99967Z" stroke="white" stroke-width="1.66667" stroke-linecap="round" stroke-linejoin="round"/>
</svg>
